<?xml version="1.0" standalone="no"?>
<!DOCTYPE svg PUBLIC "-//W3C//DTD SVG 20010904//EN"
 "http://www.w3.org/TR/2001/REC-SVG-20010904/DTD/svg10.dtd">
<svg version="1.0" xmlns="http://www.w3.org/2000/svg"
 width="1280.000000pt" height="1280.000000pt" viewBox="0 0 1280.000000 1280.000000"
 preserveAspectRatio="xMidYMid meet">
<metadata>
Created by potrace 1.15, written by Peter Selinger 2001-2017
</metadata>
<g transform="translate(0.000000,1280.000000) scale(0.100000,-0.100000)"
fill="#000000" stroke="none">
<path d="M5940 12429 c-1642 -120 -3167 -903 -4228 -2169 -1123 -1341 -1613
-3105 -1346 -4840 92 -599 273 -1178 539 -1727 633 -1307 1731 -2357 3070
-2936 1996 -861 4325 -586 6060 718 235 176 416 336 655 575 323 322 545 591
775 940 898 1359 1214 3005 885 4606 -375 1821 -1589 3390 -3265 4218 -700
346 -1428 547 -2221 611 -201 16 -723 18 -924 4z m887 -954 c973 -80 1923
-450 2703 -1054 1498 -1159 2237 -3042 1929 -4911 -214 -1298 -930 -2475
-1989 -3271 -267 -200 -504 -345 -815 -499 -582 -286 -1144 -444 -1820 -512
-198 -19 -739 -16 -950 6 -963 100 -1824 436 -2590 1011 -211 158 -353 283
-550 480 -1178 1180 -1704 2832 -1429 4485 134 805 460 1564 958 2230 273 366
657 748 1029 1027 1019 763 2242 1113 3524 1008z"/>
<path d="M6135 10783 c-777 -48 -1523 -293 -2165 -711 -768 -500 -1369 -1230
-1698 -2063 -283 -716 -381 -1473 -286 -2214 47 -370 135 -708 275 -1065 122
-310 249 -553 444 -845 551 -827 1353 -1433 2309 -1746 793 -260 1665 -288
2471 -79 1735 449 3025 1881 3285 3645 38 254 45 358 44 660 0 220 -5 340 -18
450 -64 554 -199 1017 -437 1500 -699 1423 -2104 2360 -3694 2465 -138 9 -410
11 -530 3z m327 -1684 c128 -34 237 -64 241 -68 4 -5 -38 -182 -94 -395 -56
-213 -100 -388 -98 -390 6 -4 384 -95 386 -92 1 1 47 175 103 386 56 212 103
386 104 387 4 4 471 -120 479 -127 4 -4 -37 -177 -92 -386 -55 -208 -101 -387
-103 -397 -2 -14 19 -26 107 -61 514 -202 798 -468 856 -802 18 -102 6 -289
-25 -408 -80 -308 -263 -498 -563 -587 l-42 -12 56 -34 c183 -110 309 -235
378 -376 64 -131 79 -197 79 -347 0 -395 -221 -827 -512 -1000 -171 -101 -322
-139 -584 -147 -206 -6 -328 3 -566 43 -85 14 -155 24 -157 22 -2 -2 -50 -179
-106 -393 -56 -215 -106 -394 -110 -399 -6 -6 -474 107 -486 118 -1 1 45 179
102 396 57 217 101 398 97 402 -4 4 -52 18 -107 32 -55 14 -138 37 -185 50
-46 14 -85 24 -87 23 -1 -2 -48 -178 -104 -392 -56 -215 -105 -394 -109 -398
-8 -9 -470 108 -481 121 -3 4 41 183 98 397 56 215 103 395 103 401 0 13 -3
14 -570 164 -242 64 -404 112 -403 119 2 6 57 132 123 279 l121 269 177 -49
c205 -57 271 -63 325 -29 20 12 45 37 57 56 25 41 600 2220 600 2275 0 100
-75 198 -181 237 -30 12 -132 40 -227 64 -95 24 -171 49 -169 54 2 6 32 121
67 258 47 180 68 247 79 247 8 0 152 -36 320 -81 521 -138 645 -169 652 -161
4 4 53 184 109 400 57 215 105 392 106 392 2 0 108 -27 236 -61z"/>
<path d="M6364 7656 c-2 -6 -58 -218 -124 -471 -66 -253 -123 -467 -125 -475
-9 -29 403 -129 615 -151 374 -37 593 79 656 348 66 281 -134 500 -590 648
-188 60 -426 117 -432 101z"/>
<path d="M5980 6198 c0 -2 -63 -241 -140 -533 -76 -291 -136 -533 -132 -536
10 -10 290 -85 424 -114 198 -42 317 -57 473 -58 335 -3 515 93 596 319 30 82
31 228 2 300 -77 195 -284 346 -643 469 -138 47 -580 163 -580 153z"/>
</g>
</svg>
