<svg class="logo" viewBox="0 0 48 84" xmlns="http://www.w3.org/2000/svg"><g><path d="M5.206 83.433a4.86 4.86 0 01-4.859-4.861V5.431a4.86 4.86 0 119.719 0v73.141a4.861 4.861 0 01-4.86 4.861" fill="#CEDC21" class="logo-brand-light"></path><path d="M5.209 83.433a4.862 4.862 0 01-2.086-9.253L32.43 60.274 2.323 38.093a4.861 4.861 0 015.766-7.826l36.647 26.999a4.864 4.864 0 01-.799 8.306L7.289 82.964a4.866 4.866 0 01-2.08.469" fill="#51B13E" class="logo-brand-medium"></path><path d="M5.211 54.684a4.86 4.86 0 01-2.887-8.774L32.43 23.73 3.123 9.821a4.861 4.861 0 014.166-8.784l36.648 17.394a4.86 4.86 0 01.799 8.305l-36.647 27a4.844 4.844 0 01-2.878.948" fill="#CEDC21" class="logo-brand-light"></path><path d="M10.066 31.725v20.553L24.01 42.006z" fill="#1E7A44" class="logo-brand-dark"></path><path d="M10.066 5.431A4.861 4.861 0 005.206.57 4.86 4.86 0 00.347 5.431v61.165h9.72V5.431h-.001z" fill="#CEDC21" class="logo-brand-light"></path></g></svg>